<svg xmlns="http://www.w3.org/2000/svg" width="290px" height="86px" viewBox="0 0 287.96 85.11"><defs><style>.cls-1{fill:#fff;}</style></defs><title>bid-white_1</title><path class="cls-1" d="M234.64,42.12A7,7,0,0,0,237.89,36v-.08a7,7,0,0,0-2.11-5.23C234,28.9,231.3,28,227.91,28H214.05V57.75h14.19c7.16,0,11.26-3.05,11.26-8.37v-.08C239.5,45.87,238,43.63,234.64,42.12Zm-6.39,9.15h-7.1V45.83H228c2.82,0,4.25.9,4.25,2.68v.08C232.28,50.37,230.92,51.27,228.24,51.27Zm-7.1-11.63v-5.2H227c1.69,0,3.71.44,3.71,2.52V37c0,1.72-1.39,2.6-4.13,2.6Z"/><path class="cls-1" d="M263.36,28H251.64V57.75h11.71a16.27,16.27,0,0,0,11.39-4.3,14.51,14.51,0,0,0,4.41-10.59v-.08C279.15,34.19,272.51,28,263.36,28Zm8.25,14.89v.08c0,4.89-3.32,8.17-8.25,8.17H258.9V34.61h4.46A7.81,7.81,0,0,1,271.61,42.86Z"/><path class="cls-1" d="M245.13,27.92a3.63,3.63,0,0,1,3.63,3.63v26.2H241.5V27.92Z"/><path class="cls-1" d="M183.73,47.36c-3.83,6.2,8.47,6.29,2.78,17.87l-.5.08A24.26,24.26,0,0,1,162.48,27.6c-.62,14,24.83,14,21.25,19.76m5.42,17.27c1.31-2.44,4.16-6,10.26-13.16,9.12-10.72-17.91-7.12-22.54-15.23-3.81-6.68,10.38-11.48,19-15.2a24.26,24.26,0,0,1-6.68,43.59Zm-8-30.6c-.91.48.72,2.59,4.88,2.7S184.83,32.1,181.15,34Zm9.19,2.26c-3.12-1-1.07,1.49.42,1.65S192.56,37,190.35,36.3Zm3.26,2.45c-1,0-1.22.58.34.91C196.14,40.12,194.64,38.79,193.6,38.74Z"/><rect class="cls-1" x="10.12" y="28.18" width="6.51" height="29.58"/><polygon class="cls-1" points="44.76 57.75 30.44 38.95 30.44 57.75 24.02 57.75 24.02 28.18 30.02 28.18 43.88 46.38 43.88 28.18 50.3 28.18 50.3 57.75 44.76 57.75"/><polygon class="cls-1" points="70.79 34.17 70.79 57.75 64.28 57.75 64.28 34.17 55.28 34.17 55.28 28.18 79.79 28.18 79.79 34.17 70.79 34.17"/><path class="cls-1" d="M103,57.75l-2.7-6.63H87.77l-2.7,6.63H78.44L91.11,28h6l12.68,29.79Zm-9-22L90.1,45.37H98Z"/><polygon class="cls-1" points="114.35 57.75 114.35 28.18 120.85 28.18 120.85 51.84 135.6 51.84 135.6 57.75 114.35 57.75"/></svg>