<?xml version="1.0" encoding="UTF-8"?>
<svg width="62px" height="30px" viewBox="0 0 62 30" version="1.1" xmlns="http://www.w3.org/2000/svg" xmlns:xlink="http://www.w3.org/1999/xlink">
    <!-- Generator: Sketch 53.2 (72643) - https://sketchapp.com -->
    <title>cet-icon</title>
    <desc>Created with Sketch.</desc>
    <g id="New" stroke="none" stroke-width="1" fill="none" fill-rule="evenodd">
        <g id="Sobre" transform="translate(-60.000000, -684.000000)" fill="#6300A8">
            <path d="M116.793156,684 L116.793156,689.449581 L111.52988,689.449581 L111.52988,687.598759 L116.793156,684 Z M71.7628422,713.685007 C70.1111169,713.685007 68.570619,713.386918 67.1391237,712.79074 C65.7070723,712.193449 64.4624389,711.384827 63.4046674,710.365428 C62.3463397,709.34603 61.5143596,708.147 60.908727,706.766669 C60.3025382,705.386895 60,703.913689 60,702.346497 C60,700.75539 60.3025382,699.26995 60.908727,697.889619 C61.5143596,696.509845 62.3463397,695.303585 63.4046674,694.271395 C64.4624389,693.239762 65.7070723,692.431696 67.1391237,691.847197 C68.570619,691.26381 70.1111169,690.970726 71.7628422,690.970726 C73.0263843,690.970726 74.2204092,691.142016 75.3426926,691.484596 C76.4644198,691.826063 77.4899355,692.30156 78.4186834,692.909973 C79.3474312,693.518387 80.1599466,694.240252 80.8567856,695.076125 C81.5530684,695.91311 82.1197715,696.838521 82.5591193,697.851246 L77.8764503,699.701512 C77.3603557,698.538631 76.5673051,697.612107 75.4972985,696.921386 C74.4261797,696.23122 73.1943375,695.885303 71.8012156,695.885303 C70.8474416,695.885303 69.9637408,696.054925 69.1512254,696.393612 C68.3387101,696.732299 67.6285238,697.192224 67.0228912,697.772831 C66.4161463,698.353993 65.9450987,699.037485 65.6103046,699.823862 C65.2749543,700.610239 65.1075572,701.451117 65.1075572,702.345941 C65.1075572,703.217407 65.2749543,704.046606 65.6103046,704.832427 C65.9450987,705.618804 66.4161463,706.302852 67.0228912,706.883458 C67.6285238,707.464065 68.3448276,707.924546 69.1701341,708.263233 C69.9954406,708.601364 70.885815,708.770985 71.8407013,708.770985 C73.31057,708.770985 74.5685507,708.402267 75.6129749,707.664274 C76.6579553,706.926837 77.4376586,705.977512 77.9543094,704.816855 L82.6364223,706.702714 C82.1976306,707.715438 81.6303714,708.65086 80.9335324,709.510647 C80.2366934,710.37099 79.4308517,711.111207 78.5154511,711.730743 C77.5994944,712.350836 76.5734226,712.831337 75.4389042,713.173361 C74.3032736,713.514273 73.0786611,713.685007 71.7628422,713.685007 Z M95.444801,695.575535 C93.8703787,695.575535 92.5100689,695.923121 91.3622033,696.618291 C90.2143376,697.313462 89.4079398,698.230531 88.944122,699.36783 L101.790318,699.36783 C101.403803,698.124865 100.655244,697.182214 99.5463074,696.53932 C98.4368152,695.897538 97.0698318,695.575535 95.444801,695.575535 Z M95.6377804,713.685007 C93.8575876,713.685007 92.233113,713.393035 90.7626882,712.809092 C89.2922634,712.225149 88.0342827,711.4232 86.9893023,710.403802 C85.944878,709.384404 85.1323627,708.183705 84.5517562,706.803931 C83.9711498,705.424156 83.6814027,703.950951 83.6814027,702.384314 C83.6814027,700.792652 83.984497,699.300537 84.5901296,697.908528 C85.1957622,696.515406 86.0282985,695.309702 87.0866262,694.290304 C88.1438416,693.270906 89.388475,692.46284 90.8205264,691.866661 C92.2520216,691.269371 93.7930757,690.970726 95.444801,690.970726 C97.1215524,690.970726 98.6759538,691.242676 100.107449,691.787134 C101.538944,692.331035 102.770787,693.092942 103.80242,694.072299 C104.834609,695.052211 105.641007,696.20675 106.221057,697.537029 C106.801664,698.867307 107.091967,700.318267 107.091967,701.890465 L107.091967,703.740175 L88.6727274,703.740175 C89.0336599,705.340179 89.820593,706.62986 91.0329705,707.609772 C92.245348,708.590797 93.7808407,709.080753 95.6377804,709.080753 C97.1082052,709.080753 98.3850945,708.719265 99.4684483,707.996843 C100.552914,707.275534 101.36543,706.307301 101.906551,705.094923 L106.202149,707.571399 C105.221124,709.403312 103.847467,710.879855 102.081177,712.002138 C100.313776,713.123865 98.1659767,713.685007 95.6377804,713.685007 Z M107.633644,691.009377 L121.37077,691.009377 L121.37077,695.69149 L116.765961,695.69149 L116.765961,704.165897 C116.765961,705.146922 116.817681,705.939973 116.920566,706.546161 C117.023452,707.151794 117.236452,707.616168 117.559567,707.938727 C117.88157,708.261286 118.345944,708.474286 118.952689,708.577172 C119.557766,708.680613 120.36472,708.731778 121.37077,708.731778 L121.37077,713.646355 L120.635558,713.646355 C118.880948,713.646355 117.417196,713.49175 116.243192,713.181982 C115.069744,712.87277 114.134323,712.350001 113.43804,711.614789 C112.741757,710.879577 112.244571,709.911899 111.948707,708.712869 C111.65173,707.513283 111.503241,706.010602 111.503241,704.204827 L111.503241,695.69149 L107.633644,695.69149 L107.633644,691.009377 Z" id="cet-icon"></path>
        </g>
    </g>
</svg>