<svg xmlns="http://www.w3.org/2000/svg" width="207px" height="86px"  viewBox="0 0 207.06 85.11"><defs><style>.cls-1{fill:#fff;}</style></defs><title>cet-white_1</title><path class="cls-1" d="M19.21,37.17a11.08,11.08,0,0,1-7.72-3.07,10.33,10.33,0,0,1-2.31-3.33,10.43,10.43,0,0,1,0-8.2A10.52,10.52,0,0,1,14.93,17a11.71,11.71,0,0,1,7.58-.34A11,11,0,0,1,25.36,18a10.15,10.15,0,0,1,2.25,2,10.53,10.53,0,0,1,1.57,2.56l-4.33,1.71a5.79,5.79,0,0,0-2.2-2.57,6.16,6.16,0,0,0-3.41-1,6.31,6.31,0,0,0-4.42,1.74,5.67,5.67,0,0,0-1.31,1.9,5.87,5.87,0,0,0-.47,2.33,5.79,5.79,0,0,0,.47,2.3,5.66,5.66,0,0,0,1.31,1.9,6.27,6.27,0,0,0,2,1.28,6.43,6.43,0,0,0,2.47.47,5.89,5.89,0,0,0,3.49-1A6.31,6.31,0,0,0,24.93,29l4.33,1.74a11.16,11.16,0,0,1-1.57,2.59A10.18,10.18,0,0,1,22.6,36.7,11.73,11.73,0,0,1,19.21,37.17Z"/><path class="cls-1" d="M31.08,10.67H35.9v8.44A7.68,7.68,0,0,1,38.57,17a8,8,0,0,1,3.59-.79,8,8,0,0,1,6.1,2.32A9,9,0,0,1,50.46,25V37.14H45.52V25.54a5.65,5.65,0,0,0-1.18-3.79,4.4,4.4,0,0,0-3.54-1.38,4.94,4.94,0,0,0-1.9.37,4.43,4.43,0,0,0-1.56,1.07,4.91,4.91,0,0,0-1,1.75,7,7,0,0,0-.38,2.38V37.14H31.08Z"/><path class="cls-1" d="M53.21,16.22h4.86V37.14H53.21Z"/><path class="cls-1" d="M71.05,37.17a11.08,11.08,0,0,1-7.72-3.07A10.33,10.33,0,0,1,61,30.78a10.43,10.43,0,0,1,0-8.2A10.52,10.52,0,0,1,66.78,17a11.71,11.71,0,0,1,7.58-.34A11,11,0,0,1,77.2,18a10.15,10.15,0,0,1,2.25,2A10.53,10.53,0,0,1,81,22.54L76.7,24.25a5.79,5.79,0,0,0-2.2-2.57,6.16,6.16,0,0,0-3.41-1,6.31,6.31,0,0,0-4.42,1.74,5.67,5.67,0,0,0-1.31,1.9,5.87,5.87,0,0,0-.47,2.33,5.79,5.79,0,0,0,.47,2.3,5.66,5.66,0,0,0,1.31,1.9,6.27,6.27,0,0,0,2,1.28,6.43,6.43,0,0,0,2.47.47,5.89,5.89,0,0,0,3.49-1A6.31,6.31,0,0,0,76.78,29l4.33,1.74a11.16,11.16,0,0,1-1.57,2.59,10.18,10.18,0,0,1-5.08,3.38A11.73,11.73,0,0,1,71.05,37.17Z"/><path class="cls-1" d="M92.37,37.17a10.51,10.51,0,0,1-7-2.76A10.12,10.12,0,0,1,83,31.12a10.5,10.5,0,0,1-.89-4.43,10.77,10.77,0,0,1,.88-4.46,9.9,9.9,0,0,1,5.65-5.34,10.82,10.82,0,0,1,3.84-.71,9.63,9.63,0,0,1,3.83.75,8,8,0,0,1,2.9,2V16.22H104V37.14H99.16v-3a7.88,7.88,0,0,1-2.93,2.2A9.3,9.3,0,0,1,92.37,37.17Zm.79-4.43a6.52,6.52,0,0,0,2.5-.47,5.8,5.8,0,0,0,2-1.31A6.43,6.43,0,0,0,98.93,29a5.9,5.9,0,0,0,.48-2.38,5.82,5.82,0,0,0-.48-2.35,6.22,6.22,0,0,0-1.31-1.93,5.94,5.94,0,0,0-2-1.29,6.84,6.84,0,0,0-5,0,6.45,6.45,0,0,0-2,1.28,5.74,5.74,0,0,0-1.34,1.91,5.91,5.91,0,0,0-.48,2.38,6,6,0,0,0,.48,2.4A5.88,5.88,0,0,0,88.65,31a6.29,6.29,0,0,0,2,1.29A6.55,6.55,0,0,0,93.15,32.74Z"/><path class="cls-1" d="M114.61,37.17a11.6,11.6,0,0,1-5.76-1.29,8.75,8.75,0,0,1-3.54-3.73l4.47-2a5.3,5.3,0,0,0,2,2.11,5.93,5.93,0,0,0,3,.74,4.24,4.24,0,0,0,2.68-.72,2.13,2.13,0,0,0,.89-1.71,1.1,1.1,0,0,0-.41-.89,3.84,3.84,0,0,0-1.07-.6,9.08,9.08,0,0,0-1.56-.43l-1.86-.37q-1.36-.27-2.66-.65a8.81,8.81,0,0,1-2.34-1,5.33,5.33,0,0,1-1.68-1.7,5.19,5.19,0,0,1-.05-4.91,6.25,6.25,0,0,1,1.66-2A8.2,8.2,0,0,1,111,16.68a10.88,10.88,0,0,1,3.38-.49,10.66,10.66,0,0,1,5.24,1.17,8.8,8.8,0,0,1,3.31,3.17l-4.11,1.94A4.58,4.58,0,0,0,117,20.8a5.54,5.54,0,0,0-2.65-.61,4.08,4.08,0,0,0-2.54.65,1.88,1.88,0,0,0-.82,1.5q0,1,1.22,1.42a28.87,28.87,0,0,0,3.58.9,24.45,24.45,0,0,1,2.59.63,9.88,9.88,0,0,1,2.38,1.06A5.4,5.4,0,0,1,122.53,28a4.78,4.78,0,0,1,.66,2.61,5.47,5.47,0,0,1-.5,2.2A6.36,6.36,0,0,1,121.13,35a8.17,8.17,0,0,1-2.66,1.59A10.83,10.83,0,0,1,114.61,37.17Z"/><path class="cls-1" d="M142.15,37.16a12.11,12.11,0,0,1-4.5-.81,10.45,10.45,0,0,1-3.49-2.22,10,10,0,0,1-2.25-3.32,10.42,10.42,0,0,1-.8-4.08,10.33,10.33,0,0,1,3.15-7.48A11.07,11.07,0,0,1,142,16.18a12,12,0,0,1,4.31.75A10.1,10.1,0,0,1,149.69,19a9.72,9.72,0,0,1,2.23,3.2,9.94,9.94,0,0,1,.8,4V28h-17a6.2,6.2,0,0,0,2.18,3.57,6.55,6.55,0,0,0,4.25,1.36,6.11,6.11,0,0,0,5.79-3.68l4,2.29a10.51,10.51,0,0,1-9.76,5.65ZM142,20.43a7.13,7.13,0,0,0-3.77,1A5.26,5.26,0,0,0,136,23.94h11.87a4.44,4.44,0,0,0-2.07-2.61A7.46,7.46,0,0,0,142,20.43Z"/><path class="cls-1" d="M154.88,16.22h4.79v2.86a7.66,7.66,0,0,1,2.63-2.1A9,9,0,0,1,172,18.5a9,9,0,0,1,2.2,6.46V37.13h-4.9V25.5a5.59,5.59,0,0,0-1.18-3.75,4.4,4.4,0,0,0-3.54-1.38,4.7,4.7,0,0,0-3.48,1.43,5.62,5.62,0,0,0-1.41,4.12V37.13h-4.83Z"/><path class="cls-1" d="M8.26,47.67h3.58V44.49l4.86-3.33v6.51H21V52H16.7v7.83a13.6,13.6,0,0,0,.14,2.2,2,2,0,0,0,1.88,1.88A13.8,13.8,0,0,0,21,64v4.54h-.68a16.21,16.21,0,0,1-4.06-.43,5.35,5.35,0,0,1-2.59-1.45A5.85,5.85,0,0,1,12.25,64a17.7,17.7,0,0,1-.41-4.17V52H8.26Z"/><path class="cls-1" d="M32.94,68.62a12.1,12.1,0,0,1-4.51-.81,10.45,10.45,0,0,1-3.49-2.22,10,10,0,0,1-2.25-3.33,10.43,10.43,0,0,1-.8-4.08A10.33,10.33,0,0,1,25,50.7a11.08,11.08,0,0,1,7.72-3.07,12,12,0,0,1,4.31.75,10.12,10.12,0,0,1,3.42,2.11,9.74,9.74,0,0,1,2.23,3.2,10,10,0,0,1,.8,4v1.71h-17A6.21,6.21,0,0,0,28.68,63a6.55,6.55,0,0,0,4.26,1.36,6.11,6.11,0,0,0,5.79-3.68l4,2.29a10.52,10.52,0,0,1-9.76,5.65Zm-.18-16.74a7.14,7.14,0,0,0-3.77,1,5.26,5.26,0,0,0-2.24,2.54H38.62a4.44,4.44,0,0,0-2.07-2.61A7.46,7.46,0,0,0,32.76,51.89Z"/><path class="cls-1" d="M55.86,68.62a11.08,11.08,0,0,1-7.72-3.07,10.33,10.33,0,0,1-2.31-3.33,10.43,10.43,0,0,1,0-8.2,10.52,10.52,0,0,1,5.76-5.58,11.71,11.71,0,0,1,7.58-.34A11,11,0,0,1,62,49.42a10.15,10.15,0,0,1,2.25,2A10.53,10.53,0,0,1,65.83,54L61.51,55.7a5.79,5.79,0,0,0-2.2-2.57,6.16,6.16,0,0,0-3.41-1,6.31,6.31,0,0,0-4.42,1.74,5.67,5.67,0,0,0-1.31,1.9,5.87,5.87,0,0,0-.47,2.33,5.79,5.79,0,0,0,.47,2.3,5.66,5.66,0,0,0,1.31,1.9,6.27,6.27,0,0,0,2,1.28,6.43,6.43,0,0,0,2.47.47,5.89,5.89,0,0,0,3.49-1,6.31,6.31,0,0,0,2.16-2.63l4.33,1.74a11.16,11.16,0,0,1-1.57,2.59,10.18,10.18,0,0,1-5.08,3.38A11.73,11.73,0,0,1,55.86,68.62Z"/><path class="cls-1" d="M67.73,47.67h4.79v2.86a7.65,7.65,0,0,1,2.63-2.1,9,9,0,0,1,9.73,1.52,9,9,0,0,1,2.2,6.46V68.59h-4.9V57A5.59,5.59,0,0,0,81,53.2a4.4,4.4,0,0,0-3.54-1.38A4.7,4.7,0,0,0,74,53.25a5.63,5.63,0,0,0-1.41,4.12V68.59H67.73Z"/><path class="cls-1" d="M100,68.62a11.11,11.11,0,0,1-4.24-.81A10.52,10.52,0,0,1,90,62.23,10.43,10.43,0,0,1,90,54a10.52,10.52,0,0,1,5.76-5.58,11.12,11.12,0,0,1,4.24-.81,11,11,0,0,1,7.67,3A10.43,10.43,0,0,1,110,54a10.43,10.43,0,0,1,0,8.2,10.42,10.42,0,0,1-2.32,3.34,11,11,0,0,1-7.67,3Zm0-4.54a6.08,6.08,0,0,0,2.4-.47,6.18,6.18,0,0,0,1.93-1.28,5.88,5.88,0,0,0,1.75-4.19,5.89,5.89,0,0,0-.46-2.33,5.82,5.82,0,0,0-1.29-1.9,6.19,6.19,0,0,0-1.93-1.27,6.08,6.08,0,0,0-2.4-.47,6.21,6.21,0,0,0-2.41.47,5.91,5.91,0,0,0-3.67,5.5,5.79,5.79,0,0,0,.46,2.3,5.83,5.83,0,0,0,3.2,3.17A6.21,6.21,0,0,0,100,64.08Z"/><path class="cls-1" d="M113,42.13h4.86V68.59H113Z"/><path class="cls-1" d="M130.77,68.62a11.11,11.11,0,0,1-4.24-.81,10.52,10.52,0,0,1-5.76-5.58,10.43,10.43,0,0,1,0-8.2,10.52,10.52,0,0,1,5.76-5.58,11.12,11.12,0,0,1,4.24-.81,11,11,0,0,1,7.67,3A10.43,10.43,0,0,1,140.76,54a10.43,10.43,0,0,1,0,8.2,10.42,10.42,0,0,1-2.32,3.34,11,11,0,0,1-7.67,3Zm0-4.54a6.08,6.08,0,0,0,2.4-.47,6.18,6.18,0,0,0,1.93-1.28,5.88,5.88,0,0,0,1.75-4.19,5.89,5.89,0,0,0-.46-2.33,5.82,5.82,0,0,0-1.29-1.9,6.19,6.19,0,0,0-1.93-1.27,6.08,6.08,0,0,0-2.4-.47,6.21,6.21,0,0,0-2.41.47,5.91,5.91,0,0,0-3.67,5.5,5.79,5.79,0,0,0,.46,2.3,5.83,5.83,0,0,0,3.2,3.17A6.21,6.21,0,0,0,130.77,64.08Z"/><path class="cls-1" d="M160.34,65.41a7.94,7.94,0,0,1-2.93,2.36,8.89,8.89,0,0,1-3.9.86,10.51,10.51,0,0,1-7-2.76,10.12,10.12,0,0,1-2.36-3.29,10.5,10.5,0,0,1-.89-4.43,10.77,10.77,0,0,1,.88-4.46,9.9,9.9,0,0,1,5.65-5.34,10.82,10.82,0,0,1,3.84-.71,9,9,0,0,1,3.83.81,8.14,8.14,0,0,1,2.9,2.18v-3h4.83V67.79a11.84,11.84,0,0,1-.7,4.1,9.37,9.37,0,0,1-5.44,5.6,12.2,12.2,0,0,1-4.67.83,14.26,14.26,0,0,1-3.7-.45,11.43,11.43,0,0,1-3-1.25,10.63,10.63,0,0,1-2.32-1.89,12,12,0,0,1-1.72-2.41l4.29-2.61a9.24,9.24,0,0,0,2.57,3.15,6.59,6.59,0,0,0,3.93,1,5.93,5.93,0,0,0,2.47-.5,5.82,5.82,0,0,0,1.88-1.32,5.71,5.71,0,0,0,1.18-1.93,6.54,6.54,0,0,0,.41-2.29Zm-6-1.22a6.52,6.52,0,0,0,2.5-.47,5.8,5.8,0,0,0,2-1.31,6.43,6.43,0,0,0,1.31-1.95,5.9,5.9,0,0,0,.48-2.38,5.82,5.82,0,0,0-.48-2.35,6.22,6.22,0,0,0-1.31-1.93,5.94,5.94,0,0,0-2-1.29,6.84,6.84,0,0,0-5,0,6.45,6.45,0,0,0-2,1.28,5.74,5.74,0,0,0-1.34,1.91,5.91,5.91,0,0,0-.48,2.38,6,6,0,0,0,.48,2.4,5.88,5.88,0,0,0,1.34,1.95,6.29,6.29,0,0,0,2,1.29A6.55,6.55,0,0,0,154.3,64.19Z"/><path class="cls-1" d="M168,47.67h4.86V68.59H168Zm4.68-7.87h4.51l-4.43,6.08h-4.43Z"/><path class="cls-1" d="M185.23,68.62a10.51,10.51,0,0,1-7-2.76,10.12,10.12,0,0,1-2.36-3.29,10.5,10.5,0,0,1-.89-4.43,10.77,10.77,0,0,1,.88-4.46,9.9,9.9,0,0,1,5.65-5.34,10.82,10.82,0,0,1,3.84-.71,9.63,9.63,0,0,1,3.83.75,8,8,0,0,1,2.9,2V47.67h4.83V68.59H192v-3a7.88,7.88,0,0,1-2.93,2.2A9.3,9.3,0,0,1,185.23,68.62Zm.79-4.43a6.52,6.52,0,0,0,2.5-.47,5.8,5.8,0,0,0,2-1.31,6.43,6.43,0,0,0,1.31-1.95,5.9,5.9,0,0,0,.48-2.38,5.82,5.82,0,0,0-.48-2.35,6.22,6.22,0,0,0-1.31-1.93,5.94,5.94,0,0,0-2-1.29,6.84,6.84,0,0,0-5,0,6.45,6.45,0,0,0-2,1.28,5.74,5.74,0,0,0-1.34,1.91,5.91,5.91,0,0,0-.48,2.38,6,6,0,0,0,.48,2.4,5.88,5.88,0,0,0,1.34,1.95,6.29,6.29,0,0,0,2,1.29A6.55,6.55,0,0,0,186,64.19Z"/><path class="cls-1" d="M53.18,13.41V11L58.1,8.31v5.1Z"/></svg>