<svg xmlns="http://www.w3.org/2000/svg" width="290px" height="86px"  viewBox="0 0 287.96 85.11"><defs><style>.cls-1{fill:#fff;}</style></defs><title>meli-white_1</title><path class="cls-1" d="M67.26,11.72C42.83,11.72,23,24.72,23,40.66c0,.41,0,1.55,0,1.69C23,59.27,40.33,73,67.25,73c27.09,0,44.25-13.69,44.25-30.61v-1.7C111.5,24.72,91.69,11.72,67.26,11.72ZM54.92,52.8l-.12-.11h-.12a.6.6,0,0,0-.34.14,2.88,2.88,0,0,1-1.68.6,2.6,2.6,0,0,1-.94-.18A3.63,3.63,0,0,1,49.45,49a.36.36,0,0,0-.11-.34l-.18-.15-.17.16a2.67,2.67,0,0,1-1.87.76,2.7,2.7,0,1,1,2.67-3l.09.73.4-.61A3.75,3.75,0,0,1,54.59,45a2.73,2.73,0,0,1,1.91,2.54c0,.35.28.37.33.37a.44.44,0,0,0,.31-.16,2.73,2.73,0,0,1,2-.84,3.79,3.79,0,0,1,1.49.34C63.16,48.34,62,51.57,62,51.6c-.22.54-.23.77,0,.91l.1,0h.07a1.79,1.79,0,0,0,.49-.13,4.37,4.37,0,0,1,1.36-.3h0a3.47,3.47,0,1,1,0,6.93,3.44,3.44,0,0,1-3.46-3.31c0-.16,0-.58-.38-.58a.65.65,0,0,0-.42.22,2.44,2.44,0,0,1-1.7.77,3,3,0,0,1-1.12-.24c-2-.8-2-2.16-1.92-2.7A.49.49,0,0,0,54.92,52.8Zm48.34-26.65.71.74.11.12q.67.74,1.27,1.5l.06.08.5.68.25.35.44.65.28.45q.3.5.58,1l.29.55.27.55c.1.21.2.43.29.65s.14.31.2.47c.14.35.26.7.38,1.05.05.16.1.31.14.47s.14.49.21.74.08.31.12.46.11.52.16.78h0a101.44,101.44,0,0,0-18.58,6C86.72,39.83,77,31.4,74.4,29.43a11.56,11.56,0,0,0-3.42-2,5.68,5.68,0,0,0-1.68-.26,7.05,7.05,0,0,0-2.13.36,17.49,17.49,0,0,0-5,3.18l-.08.07C60.52,32,59,33.25,57.76,33.51a7.28,7.28,0,0,1-1.59.18,4.08,4.08,0,0,1-3-1c-.07-.09,0-.25.15-.47l0,0,3.69-4c2.89-2.89,5.62-5.62,11.91-5.77h.31a22.28,22.28,0,0,1,8.26,2,25.6,25.6,0,0,0,11.26,2.7,29.39,29.39,0,0,0,12.33-2.95h0c.72.6,1.39,1.23,2,1.87Zm-36-12.72c13,0,24.57,3.72,32.38,9.57a27.21,27.21,0,0,1-10.83,2.46,24,24,0,0,1-10.54-2.54,23.72,23.72,0,0,0-9-2.13h-.35a15.62,15.62,0,0,0-10.26,3.64,20.29,20.29,0,0,0-5.12.93,13.82,13.82,0,0,1-3.61.69c-.46,0-1.29,0-1.37,0a70.16,70.16,0,0,1-12.92-3.58C43.43,16.91,54.71,13.43,67.27,13.43Zm-41,19.92h0a21.75,21.75,0,0,1,2.11-3.76v0a26.42,26.42,0,0,1,2.91-3.47l0,0a31.73,31.73,0,0,1,2.77-2.47h0c5.4,2.21,11.94,3.91,14,4,.58,0,1.19.1,1.81.1A15.35,15.35,0,0,0,54,27c.78-.22,1.65-.46,2.56-.63l-.73.72-3.75,4.06a1.88,1.88,0,0,0-.51,2.07,2.63,2.63,0,0,0,1,1.09,7.82,7.82,0,0,0,4,1,7.14,7.14,0,0,0,1.59-.17c1.57-.35,3.22-1.67,5-3.06A16.55,16.55,0,0,1,68,29.18,5.56,5.56,0,0,1,69.34,29l.35,0a7.34,7.34,0,0,1,3.69,1.76C76.47,33.09,90.09,45,90.23,45.12a2.62,2.62,0,0,1,.82,2A2.18,2.18,0,0,1,90,48.87a3.3,3.3,0,0,1-1.79.56A2.94,2.94,0,0,1,86.59,49s-4.72-4.32-6.44-5.76a1.44,1.44,0,0,0-.81-.43.45.45,0,0,0-.36.17c-.27.33,0,.79.39,1.1l5.45,5.48A2.6,2.6,0,0,1,85.58,51a2.49,2.49,0,0,1-1.29,2.26,3.51,3.51,0,0,1-1.93.64,2.8,2.8,0,0,1-1.56-.47L80,52.66c-1.43-1.41-2.91-2.86-4-3.76a1.45,1.45,0,0,0-.81-.42.46.46,0,0,0-.34.15c-.12.14-.21.38.1.79a2.59,2.59,0,0,0,.28.31l4,4.47a1.53,1.53,0,0,1,.09,1.91l-.14.18a4.2,4.2,0,0,1-.37.36,3.18,3.18,0,0,1-1.94.62,3,3,0,0,1-.54,0,1.35,1.35,0,0,1-.78-.33l0,0c-.22-.22-2.22-2.27-3.88-3.66a1.37,1.37,0,0,0-.77-.41.48.48,0,0,0-.36.16c-.33.36.16.9.37,1.09l3.39,3.74a.76.76,0,0,1-.13.23c-.12.17-.53.58-1.76.73a3.39,3.39,0,0,1-.45,0,7.76,7.76,0,0,1-3.32-1A5.06,5.06,0,0,0,64,50.53h-.18a4.49,4.49,0,0,0-2.57-4.75,5.33,5.33,0,0,0-2.12-.47,4.31,4.31,0,0,0-1.55.28,4.26,4.26,0,0,0-2.48-2.1,5.54,5.54,0,0,0-1.82-.32,4.79,4.79,0,0,0-2.83.91,4.27,4.27,0,0,0-6.35-.36c-1.06-.81-5.25-3.47-16.46-6-.53-.12-1.75-.47-2.51-.69h0A18.86,18.86,0,0,1,26.29,33.35Zm41,34.51c-23.49,0-42.54-12.18-42.54-27.21a17.68,17.68,0,0,1,.1-1.8l2.44.58C38.73,42,42.52,44.62,43.16,45.12a4.29,4.29,0,0,0,4,5.95,4.42,4.42,0,0,0,.79-.07,5,5,0,0,0,3.24,3.74,4.28,4.28,0,0,0,1.53.3,3.93,3.93,0,0,0,1-.12A5,5,0,0,0,58,57.75a3.8,3.8,0,0,0,1.31-.23,5.05,5.05,0,0,0,8.31,1.6,9.53,9.53,0,0,0,4.29,1.28,5.33,5.33,0,0,0,.65,0,3.92,3.92,0,0,0,2.91-1.42,2.14,2.14,0,0,0,.18-.29,4.85,4.85,0,0,0,1.37.21,4.62,4.62,0,0,0,2.77-1,3.81,3.81,0,0,0,1.64-2.38v0a4.72,4.72,0,0,0,.93.09,5.15,5.15,0,0,0,2.85-.9,4.1,4.1,0,0,0,2-3.66,4.64,4.64,0,0,0,.94.1,4.91,4.91,0,0,0,2.67-.82,3.9,3.9,0,0,0,1.85-3,4.09,4.09,0,0,0-.59-2.44,110.15,110.15,0,0,1,17.64-5.53c0,.45.05.9.05,1.36C109.81,55.68,90.76,67.86,67.27,67.86Z"/><path class="cls-1" d="M262.25,22.22q-2.39-3-7.27-3t-7.27,3a11,11,0,0,0-2.4,7.09,11,11,0,0,0,2.4,7.12q2.39,3,7.27,3t7.27-3a11,11,0,0,0,2.4-7.12A11,11,0,0,0,262.25,22.22Zm-4,11.48a4.38,4.38,0,0,1-6.67,0,7.13,7.13,0,0,1-1.17-4.39,7.09,7.09,0,0,1,1.17-4.38,4.4,4.4,0,0,1,6.67,0,7.14,7.14,0,0,1,1.16,4.38A7.18,7.18,0,0,1,258.29,33.7Z"/><path class="cls-1" d="M221.44,20.55a12.12,12.12,0,0,0-5.56-1.24q-4.81,0-6.79,2.51a7.3,7.3,0,0,0-1.4,4.09h4.79a3.56,3.56,0,0,1,.71-1.74,3.16,3.16,0,0,1,2.52-.87,5.13,5.13,0,0,1,2.41.45,1.67,1.67,0,0,1,.82,1.61,1.49,1.49,0,0,1-1.07,1.41,7.86,7.86,0,0,1-2,.43l-1.7.21a12.13,12.13,0,0,0-4.39,1.22,5.4,5.4,0,0,0-2.72,5.07,5.23,5.23,0,0,0,1.69,4.17,6.69,6.69,0,0,0,4.28,1.47c10.83.48,10.71-5.71,10.81-7V25.22Q223.87,21.79,221.44,20.55Zm-2.52,10.81a4,4,0,0,1-1.42,3.43,5.18,5.18,0,0,1-3,.94,2.73,2.73,0,0,1-1.74-.57,2.2,2.2,0,0,1-.72-1.84,2.27,2.27,0,0,1,1.17-2.11,7.38,7.38,0,0,1,2.28-.68l1.13-.21A8.26,8.26,0,0,0,218,30a5,5,0,0,0,1-.48Z"/><path class="cls-1" d="M196.74,23.56a3.23,3.23,0,0,1,2.73,1.15,4.28,4.28,0,0,1,.75,1.91h5.34q-.44-4-2.83-5.64a10.88,10.88,0,0,0-6.15-1.6,9,9,0,0,0-6.92,2.71q-2.51,2.71-2.51,7.58a10.56,10.56,0,0,0,2.27,7q2.27,2.71,7.09,2.71t7.27-3.25a8,8,0,0,0,1.72-4.27h-5.33a4.5,4.5,0,0,1-.94,2.43,3.19,3.19,0,0,1-2.6.94,3.48,3.48,0,0,1-3.52-2.36,9,9,0,0,1-.52-3.34,9.86,9.86,0,0,1,.52-3.5A3.59,3.59,0,0,1,196.74,23.56Z"/><path class="cls-1" d="M185.73,19.38c-11,0-10.33,9.72-10.33,9.72V39h5V29.71a7.63,7.63,0,0,1,.57-3.37q1-1.94,4-1.94l.59,0,.84.07V19.41l-.42,0Z"/><path class="cls-1" d="M167.43,33.81a3.68,3.68,0,0,1-.68.75,4.26,4.26,0,0,1-2.79.76,4.73,4.73,0,0,1-2.65-.64,4.49,4.49,0,0,1-2-4h13.78a25,25,0,0,0-.17-3.76,9.34,9.34,0,0,0-1.51-3.91,7.73,7.73,0,0,0-3.27-2.8,10.82,10.82,0,0,0-4.45-.88A9.13,9.13,0,0,0,156.92,22q-2.6,2.63-2.61,7.54,0,5.25,2.89,7.57a10.31,10.31,0,0,0,6.66,2.33A9.2,9.2,0,0,0,171,36.68a6.73,6.73,0,0,0,1.73-2.87Zm-6.69-9.27a3.93,3.93,0,0,1,3-1.08,4.34,4.34,0,0,1,2.94,1,4.13,4.13,0,0,1,1.32,3h-8.52A5.14,5.14,0,0,1,160.74,24.54Z"/><path class="cls-1" d="M152.31,39h-4.55V27.51A3.2,3.2,0,0,0,144.42,24,3.35,3.35,0,0,0,141,27.51V39h-4.56V27.51c0-1-.31-3.54-3.31-3.54a3.33,3.33,0,0,0-3.45,3.54V39H125.1V27.62c0-4.73,3.14-8.31,8-8.31a7,7,0,0,1,5.66,2.64,7.24,7.24,0,0,1,5.66-2.64c5,0,7.9,3.43,7.9,8.31Z"/><path class="cls-1" d="M243.83,13.39s-5-.54-5,3.49v5.34a6,6,0,0,0-2.17-2.09,6.09,6.09,0,0,0-3.06-.76,7.26,7.26,0,0,0-6,2.78c-1.49,1.85-2.23,4.52-2.23,7.75a10.3,10.3,0,0,0,2.26,6.89c1.51,1.79,4.47,2.57,7.1,2.57,9.17,0,9.06-7.86,9.06-7.86Zm-6,20.35a3.65,3.65,0,0,1-3.19,1.56,3.49,3.49,0,0,1-3.13-1.57,8,8,0,0,1-1-4.32,7.59,7.59,0,0,1,1-4.07,3.47,3.47,0,0,1,3.19-1.64,3.78,3.78,0,0,1,2.5.9c1.17,1,1.75,2.78,1.75,5.09A6.91,6.91,0,0,1,237.85,33.74Z"/><path class="cls-1" d="M222.89,62.77a3.57,3.57,0,0,1-.68.75,4.34,4.34,0,0,1-2.8.79,4.67,4.67,0,0,1-2.63-.63,4.49,4.49,0,0,1-2-4h13.66a24.84,24.84,0,0,0-.17-3.72,9.27,9.27,0,0,0-1.49-3.88,7.66,7.66,0,0,0-3.24-2.77,10.68,10.68,0,0,0-4.41-.88,9,9,0,0,0-6.71,2.6q-2.58,2.6-2.58,7.47,0,5.2,2.86,7.51a10.22,10.22,0,0,0,6.61,2.31,9.1,9.1,0,0,0,7.05-2.74,6.65,6.65,0,0,0,1.72-2.85Zm-6.64-9.19a3.9,3.9,0,0,1,2.93-1.07,4.29,4.29,0,0,1,2.91,1,4.09,4.09,0,0,1,1.31,3H215A5.12,5.12,0,0,1,216.26,53.58Z"/><path class="cls-1" d="M188.66,48.5a6.11,6.11,0,0,0-3.06.75,6,6,0,0,0-2.17,2.09v-9s-5-.5-5,3.58V60.49s-.1,7.87,9.07,7.87c2.63,0,5.59-.79,7.1-2.57a10.31,10.31,0,0,0,2.26-6.88,11.84,11.84,0,0,0-2.23-7.62A7.25,7.25,0,0,0,188.66,48.5Zm2.06,14.22a3.5,3.5,0,0,1-3.13,1.57,3.65,3.65,0,0,1-3.2-1.56,6.91,6.91,0,0,1-1.09-4q0-3.47,1.75-5a3.79,3.79,0,0,1,2.5-.9,3.47,3.47,0,0,1,3.18,1.64,7.58,7.58,0,0,1,1,4.07A7.55,7.55,0,0,1,190.72,62.73Z"/><path class="cls-1" d="M208.94,48.48h-.23c-11,0-10.33,9.72-10.33,9.72v9.72h5V58.8a7.53,7.53,0,0,1,.57-3.37q1-1.94,4-1.94l.59,0,.83.07V48.51Z"/><path class="cls-1" d="M161.25,46V67.87h4.67V42.38S161.25,42.19,161.25,46Z"/><rect class="cls-1" x="169.74" y="42.34" width="5" height="4.96"/><rect class="cls-1" x="169.74" y="48.99" width="5.01" height="18.92"/></svg>